<svg xmlns="http://www.w3.org/2000/svg" xmlns:xlink="http://www.w3.org/1999/xlink" width="250" zoomAndPan="magnify" viewBox="0 0 187.5 60" height="80" preserveAspectRatio="xMidYMid meet" version="1.0"><defs><g/><clipPath id="35a8074184"><path d="M 61 7.105469 L 112.628906 7.105469 L 112.628906 31.855469 L 61 31.855469 Z M 61 7.105469 " clip-rule="nonzero"/></clipPath></defs><g clip-path="url(#35a8074184)"><path fill="#ffffff" d="M 112.027344 28.160156 C 111.824219 27.902344 111.515625 27.746094 111.234375 27.542969 C 111.054688 27.441406 110.847656 27.386719 110.722656 27.234375 C 110.617188 27.132812 110.515625 27.054688 110.414062 27.054688 C 110.003906 26.773438 108.953125 25.71875 108.746094 25.515625 C 108.722656 25.488281 108.722656 25.488281 108.695312 25.460938 C 108.414062 25.207031 108.15625 24.949219 107.875 24.691406 C 107.183594 24.101562 106.464844 23.539062 105.519531 23.382812 C 104.644531 23.253906 104.03125 22.714844 103.671875 21.917969 C 103.183594 20.839844 102.519531 19.917969 101.699219 19.042969 C 101.492188 18.839844 101.363281 18.554688 101.261719 18.273438 C 100.828125 17.015625 100.160156 15.910156 99.058594 15.140625 C 98.777344 14.9375 98.570312 14.679688 98.339844 14.421875 C 97.957031 14.039062 97.648438 13.574219 97.1875 13.292969 C 95.570312 12.292969 93.929688 11.34375 92.289062 10.367188 C 91.699219 10.03125 91.109375 9.699219 90.519531 9.390625 C 90.289062 9.261719 90.035156 9.160156 89.777344 9.160156 C 88.933594 9.160156 88.085938 9.238281 87.238281 9.210938 C 86.828125 9.210938 86.367188 9.109375 86.035156 8.929688 C 85.136719 8.414062 84.367188 7.617188 83.316406 7.335938 C 83.011719 7.257812 82.625 7.105469 82.371094 7.207031 C 81.265625 7.566406 80.035156 7.644531 79.089844 8.441406 C 79.011719 8.519531 78.882812 8.519531 78.78125 8.570312 C 78.5 8.722656 78.214844 8.878906 77.933594 9.03125 C 77.652344 9.183594 77.34375 9.519531 77.089844 9.46875 C 75.933594 9.289062 74.933594 9.671875 73.960938 10.109375 C 72.9375 10.570312 71.859375 10.546875 70.757812 10.546875 C 70.320312 10.546875 69.835938 10.570312 69.425781 10.726562 C 68.757812 11.007812 68.167969 11.417969 67.550781 11.777344 C 66.628906 12.316406 66.089844 13.113281 65.988281 14.167969 C 65.910156 14.886719 65.964844 15.628906 65.9375 16.375 C 65.9375 16.683594 65.9375 16.992188 65.835938 17.246094 C 65.449219 18.222656 65.347656 19.222656 65.398438 20.25 C 65.449219 21.175781 65.144531 21.972656 64.476562 22.585938 C 63.476562 23.539062 62.988281 24.71875 62.757812 26.027344 C 62.683594 26.488281 62.734375 27.027344 62.503906 27.441406 C 62.167969 28.03125 61.65625 28.542969 61.476562 29.238281 C 61.375 29.648438 61.222656 30.03125 61.144531 30.445312 C 60.988281 31.1875 61.347656 31.394531 62.246094 31.394531 C 62.863281 31.394531 63.503906 31.445312 64.117188 31.445312 C 64.65625 31.445312 65.21875 31.496094 65.757812 31.394531 C 66.015625 31.34375 66.375 31.007812 66.398438 30.777344 C 66.449219 30.390625 66.015625 30.445312 65.734375 30.367188 C 65.195312 30.238281 64.65625 30.058594 64.398438 29.492188 C 64.347656 29.367188 64.269531 29.289062 64.195312 29.238281 L 63.886719 28.75 C 63.9375 28.464844 63.9375 28.160156 64.066406 27.925781 C 64.578125 26.976562 65.117188 26.027344 65.65625 25.101562 C 65.964844 24.589844 66.347656 24.101562 66.730469 23.613281 C 67.039062 23.230469 67.167969 23.28125 67.398438 23.71875 C 67.65625 24.203125 67.910156 24.71875 68.269531 25.15625 C 68.628906 25.617188 69.167969 25.746094 69.425781 25.566406 C 69.707031 25.386719 69.730469 24.898438 69.347656 24.359375 C 68.859375 23.613281 68.835938 22.894531 69.117188 22.074219 C 69.246094 21.714844 69.371094 21.433594 69.730469 21.304688 C 70.757812 20.945312 71.78125 20.507812 72.832031 20.226562 C 73.703125 19.96875 73.882812 19.867188 73.882812 18.96875 C 73.882812 18.554688 73.882812 18.171875 73.882812 17.761719 C 74.703125 17.8125 74.808594 17.914062 74.703125 18.582031 C 74.550781 19.53125 74.652344 20.429688 75.0625 21.304688 C 75.398438 21.996094 75.882812 22.152344 76.601562 21.816406 C 77.34375 21.457031 77.859375 20.636719 78.804688 20.660156 C 78.882812 20.660156 78.960938 20.535156 79.035156 20.507812 C 79.164062 20.457031 79.292969 20.355469 79.421875 20.378906 C 79.855469 20.40625 80.140625 20.199219 80.394531 19.890625 C 80.652344 19.582031 80.960938 19.453125 81.34375 19.480469 C 81.601562 19.507812 81.882812 19.453125 82.140625 19.507812 C 83.164062 19.6875 84.191406 19.507812 85.1875 19.300781 C 85.597656 19.222656 85.984375 18.96875 86.367188 18.789062 C 86.804688 18.582031 87.214844 18.300781 87.675781 18.171875 C 88.523438 17.941406 89.265625 17.605469 89.777344 16.835938 C 89.984375 16.527344 90.238281 16.476562 90.597656 16.605469 C 91.777344 17.042969 92.980469 17.453125 94.238281 17.890625 C 93.496094 18.144531 92.777344 18.25 92.1875 18.632812 C 90.929688 19.429688 89.699219 20.277344 88.703125 21.40625 C 88.34375 21.792969 88.316406 22.175781 88.445312 22.613281 C 88.675781 23.359375 88.933594 24.078125 89.1875 24.796875 C 89.34375 25.207031 89.445312 25.617188 89.648438 25.976562 C 90.1875 26.976562 90.726562 27.953125 90.675781 29.160156 C 90.648438 29.46875 90.625 29.699219 90.34375 29.800781 C 89.675781 30.03125 89.007812 30.265625 88.34375 30.445312 C 87.882812 30.570312 87.726562 30.75 87.933594 31.214844 C 88.164062 31.726562 88.625 31.855469 89.085938 31.855469 C 90.316406 31.828125 91.574219 31.753906 92.804688 31.703125 C 93.214844 31.675781 93.390625 31.46875 93.289062 31.085938 C 93.136719 30.46875 92.957031 29.851562 92.777344 29.238281 C 92.699219 29.03125 92.339844 27.671875 92.339844 27.671875 C 92.265625 27.3125 92.214844 26.925781 92.1875 26.566406 C 92.058594 25.4375 92.058594 24.308594 91.417969 23.28125 C 91.238281 22.996094 91.367188 22.765625 91.699219 22.714844 C 92.160156 22.636719 92.648438 22.636719 93.109375 22.585938 C 93.75 22.511719 94.445312 22.511719 95.058594 22.277344 C 96.058594 21.917969 97.007812 21.40625 97.980469 20.96875 C 98.136719 20.894531 98.441406 20.894531 98.570312 20.996094 C 99.160156 21.484375 99.75 21.945312 100.238281 22.511719 C 101.160156 23.5625 102.210938 24.488281 103.542969 24.949219 C 105.414062 25.589844 107.183594 26.414062 108.695312 27.695312 C 109.207031 28.105469 109.132812 28.722656 108.566406 29.058594 C 108.3125 29.210938 107.875 29.3125 108.03125 29.699219 C 108.105469 29.90625 108.515625 30.007812 108.773438 30.136719 C 108.875 30.1875 108.976562 30.160156 109.105469 30.160156 C 110.054688 30.210938 110.925781 29.90625 111.746094 29.46875 C 112.414062 29.109375 112.515625 28.75 112.027344 28.160156 Z M 70.476562 18.324219 C 69.988281 18.734375 69.449219 19.121094 68.910156 19.558594 C 69.191406 18.710938 69.476562 17.890625 69.78125 16.9375 C 70.066406 17.296875 70.320312 17.605469 70.527344 17.941406 C 70.550781 18.042969 70.527344 18.273438 70.476562 18.324219 Z M 85.265625 17.296875 C 85.164062 17.402344 85.011719 17.476562 84.855469 17.503906 C 84.011719 17.710938 83.136719 17.890625 82.292969 18.070312 C 82.113281 18.121094 81.90625 18.09375 81.703125 18.09375 C 81.730469 17.914062 81.730469 17.734375 81.78125 17.554688 C 81.882812 17.144531 81.730469 16.886719 81.242188 16.707031 C 80.804688 16.554688 80.5 16.683594 80.34375 17.042969 C 80.320312 17.117188 80.292969 17.222656 80.242188 17.246094 C 79.320312 17.835938 78.394531 18.402344 77.472656 18.96875 C 77.449219 18.992188 77.421875 18.96875 77.320312 18.96875 C 77.320312 18.8125 77.292969 18.632812 77.320312 18.480469 C 77.449219 17.53125 77.601562 16.578125 77.753906 15.65625 C 77.78125 15.5 77.960938 15.296875 78.113281 15.269531 C 78.449219 15.167969 78.804688 15.089844 79.140625 15.117188 C 79.421875 15.140625 79.679688 15.320312 79.910156 15.5 C 80.445312 15.886719 80.472656 15.835938 80.960938 15.398438 C 81.242188 15.117188 81.855469 15.117188 82.035156 14.808594 C 82.242188 14.449219 82.421875 14.167969 82.832031 13.988281 C 83.011719 13.910156 83.191406 13.652344 83.214844 13.472656 C 83.34375 12.753906 83.0625 12.113281 82.625 11.546875 C 82.550781 11.445312 82.445312 11.34375 82.292969 11.136719 C 82.933594 11.085938 83.445312 11.035156 83.984375 11.007812 C 84.265625 11.007812 84.367188 11.136719 84.242188 11.445312 C 84.113281 11.804688 83.984375 12.164062 83.957031 12.523438 C 83.90625 13.191406 84.34375 13.601562 84.832031 13.960938 C 84.90625 14.011719 85.035156 14.039062 85.0625 14.113281 C 85.242188 14.679688 85.777344 14.679688 86.214844 14.859375 C 86.546875 15.011719 86.828125 15.296875 87.085938 15.476562 C 86.445312 16.117188 85.855469 16.707031 85.265625 17.296875 Z M 85.265625 17.296875 " fill-opacity="1" fill-rule="nonzero"/></g><g fill="#cd001e" fill-opacity="1"><g transform="translate(3.196704, 45.317216)"><g/></g></g><g fill="#cd001e" fill-opacity="1"><g transform="translate(8.140427, 45.317216)"><g/></g></g><g fill="#cd001e" fill-opacity="1"><g transform="translate(13.084151, 45.317216)"><g/></g></g><g fill="#cd001e" fill-opacity="1"><g transform="translate(18.020921, 45.317216)"><g><path d="M 1.328125 0 L 1.328125 -19.0625 L 5.25 -19.0625 L 5.25 -10.171875 L 5.296875 -10.171875 C 6.316406 -11.191406 7.40625 -11.703125 8.5625 -11.703125 C 9.125 -11.703125 9.679688 -11.628906 10.234375 -11.484375 C 10.785156 -11.335938 11.316406 -11.109375 11.828125 -10.796875 C 12.335938 -10.484375 12.75 -10.039062 13.0625 -9.46875 C 13.382812 -8.90625 13.546875 -8.25 13.546875 -7.5 L 13.546875 0 L 9.625 0 L 9.625 -6.4375 C 9.625 -7.019531 9.429688 -7.53125 9.046875 -7.96875 C 8.671875 -8.414062 8.179688 -8.640625 7.578125 -8.640625 C 6.992188 -8.640625 6.457031 -8.410156 5.96875 -7.953125 C 5.488281 -7.492188 5.25 -6.988281 5.25 -6.4375 L 5.25 0 Z M 1.328125 0 "/></g></g></g><g fill="#cd001e" fill-opacity="1"><g transform="translate(31.567327, 45.317216)"><g><path d="M 2.109375 -1.40625 C 1.046875 -2.5625 0.515625 -3.984375 0.515625 -5.671875 C 0.515625 -7.359375 1.046875 -8.785156 2.109375 -9.953125 C 3.171875 -11.117188 4.519531 -11.703125 6.15625 -11.703125 C 7.664062 -11.703125 8.910156 -11.226562 9.890625 -10.28125 L 9.890625 -11.375 L 13.8125 -11.375 L 13.8125 0 L 9.9375 0 L 9.9375 -1.28125 L 9.890625 -1.28125 C 8.910156 -0.207031 7.664062 0.328125 6.15625 0.328125 C 4.519531 0.328125 3.171875 -0.25 2.109375 -1.40625 Z M 5.4375 -7.59375 C 4.925781 -7.09375 4.671875 -6.453125 4.671875 -5.671875 C 4.671875 -4.890625 4.914062 -4.25 5.40625 -3.75 C 5.894531 -3.257812 6.539062 -3.015625 7.34375 -3.015625 C 8.101562 -3.015625 8.734375 -3.265625 9.234375 -3.765625 C 9.734375 -4.265625 9.984375 -4.898438 9.984375 -5.671875 C 9.984375 -6.453125 9.726562 -7.09375 9.21875 -7.59375 C 8.707031 -8.101562 8.082031 -8.359375 7.34375 -8.359375 C 6.582031 -8.359375 5.945312 -8.101562 5.4375 -7.59375 Z M 5.4375 -7.59375 "/></g></g></g><g fill="#cd001e" fill-opacity="1"><g transform="translate(45.601503, 45.317216)"><g><path d="M 1.328125 0 L 1.328125 -11.375 L 5.25 -11.375 L 5.25 -10.171875 L 5.296875 -10.171875 C 6.316406 -11.191406 7.40625 -11.703125 8.5625 -11.703125 C 9.382812 -11.703125 10.15625 -11.53125 10.875 -11.1875 C 11.601562 -10.851562 12.15625 -10.332031 12.53125 -9.625 C 13.675781 -11.007812 14.929688 -11.703125 16.296875 -11.703125 C 17.503906 -11.703125 18.546875 -11.363281 19.421875 -10.6875 C 20.296875 -10.007812 20.734375 -8.945312 20.734375 -7.5 L 20.734375 0 L 16.8125 0 L 16.8125 -6.4375 C 16.8125 -7.039062 16.644531 -7.546875 16.3125 -7.953125 C 15.976562 -8.359375 15.476562 -8.5625 14.8125 -8.5625 C 14.238281 -8.5625 13.796875 -8.382812 13.484375 -8.03125 C 13.179688 -7.6875 13.019531 -7.269531 13 -6.78125 L 13 0 L 9.0625 0 L 9.0625 -6.4375 C 9.0625 -7.039062 8.894531 -7.546875 8.5625 -7.953125 C 8.238281 -8.359375 7.742188 -8.5625 7.078125 -8.5625 C 6.460938 -8.5625 6.003906 -8.367188 5.703125 -7.984375 C 5.398438 -7.609375 5.25 -7.164062 5.25 -6.65625 L 5.25 0 Z M 1.328125 0 "/></g></g></g><g fill="#cd001e" fill-opacity="1"><g transform="translate(66.331584, 45.317216)"><g><path d="M 13.03125 -9.953125 C 14.101562 -8.796875 14.640625 -7.375 14.640625 -5.6875 C 14.640625 -4.007812 14.101562 -2.585938 13.03125 -1.421875 C 11.96875 -0.253906 10.617188 0.328125 8.984375 0.328125 C 7.472656 0.328125 6.226562 -0.144531 5.25 -1.09375 L 5.25 5.765625 L 1.328125 5.765625 L 1.328125 -11.375 L 5.203125 -11.375 L 5.203125 -10.09375 L 5.25 -10.09375 C 6.226562 -11.164062 7.472656 -11.703125 8.984375 -11.703125 C 10.617188 -11.703125 11.96875 -11.117188 13.03125 -9.953125 Z M 9.703125 -3.765625 C 10.210938 -4.265625 10.46875 -4.90625 10.46875 -5.6875 C 10.46875 -6.476562 10.222656 -7.117188 9.734375 -7.609375 C 9.242188 -8.109375 8.597656 -8.359375 7.796875 -8.359375 C 7.035156 -8.359375 6.40625 -8.101562 5.90625 -7.59375 C 5.414062 -7.09375 5.171875 -6.460938 5.171875 -5.703125 C 5.171875 -4.910156 5.425781 -4.265625 5.9375 -3.765625 C 6.445312 -3.265625 7.066406 -3.015625 7.796875 -3.015625 C 8.554688 -3.015625 9.191406 -3.265625 9.703125 -3.765625 Z M 9.703125 -3.765625 "/></g></g></g><g fill="#cd001e" fill-opacity="1"><g transform="translate(80.365758, 45.317216)"><g><path d="M 1.703125 -17.71875 C 2.160156 -18.175781 2.707031 -18.40625 3.34375 -18.40625 C 3.976562 -18.40625 4.523438 -18.175781 4.984375 -17.71875 C 5.441406 -17.257812 5.671875 -16.710938 5.671875 -16.078125 C 5.671875 -15.441406 5.441406 -14.894531 4.984375 -14.4375 C 4.523438 -13.976562 3.976562 -13.75 3.34375 -13.75 C 2.707031 -13.75 2.160156 -13.976562 1.703125 -14.4375 C 1.242188 -14.894531 1.015625 -15.441406 1.015625 -16.078125 C 1.015625 -16.710938 1.242188 -17.257812 1.703125 -17.71875 Z M 1.328125 -11.375 L 1.328125 0 L 5.25 0 L 5.25 -11.375 Z M 1.328125 -11.375 "/></g></g></g><g fill="#cd001e" fill-opacity="1"><g transform="translate(85.952466, 45.317216)"><g><path d="M 2.40625 -1.34375 C 1.144531 -2.46875 0.515625 -3.910156 0.515625 -5.671875 C 0.515625 -7.429688 1.171875 -8.875 2.484375 -10 C 3.796875 -11.132812 5.421875 -11.703125 7.359375 -11.703125 C 9.265625 -11.703125 10.867188 -11.132812 12.171875 -10 C 13.484375 -8.863281 14.140625 -7.421875 14.140625 -5.671875 C 14.140625 -3.929688 13.5 -2.492188 12.21875 -1.359375 C 10.945312 -0.234375 9.328125 0.328125 7.359375 0.328125 C 5.316406 0.328125 3.664062 -0.226562 2.40625 -1.34375 Z M 5.4375 -7.59375 C 4.925781 -7.09375 4.671875 -6.453125 4.671875 -5.671875 C 4.671875 -4.890625 4.914062 -4.25 5.40625 -3.75 C 5.894531 -3.257812 6.539062 -3.015625 7.34375 -3.015625 C 8.101562 -3.015625 8.734375 -3.265625 9.234375 -3.765625 C 9.734375 -4.265625 9.984375 -4.898438 9.984375 -5.671875 C 9.984375 -6.453125 9.726562 -7.09375 9.21875 -7.59375 C 8.707031 -8.101562 8.082031 -8.359375 7.34375 -8.359375 C 6.582031 -8.359375 5.945312 -8.101562 5.4375 -7.59375 Z M 5.4375 -7.59375 "/></g></g></g><g fill="#cd001e" fill-opacity="1"><g transform="translate(99.49887, 45.317216)"><g><path d="M 1.328125 0 L 1.328125 -11.375 L 5.25 -11.375 L 5.25 -10.171875 L 5.296875 -10.171875 C 6.316406 -11.191406 7.40625 -11.703125 8.5625 -11.703125 C 9.125 -11.703125 9.679688 -11.628906 10.234375 -11.484375 C 10.785156 -11.335938 11.316406 -11.109375 11.828125 -10.796875 C 12.335938 -10.484375 12.75 -10.039062 13.0625 -9.46875 C 13.382812 -8.90625 13.546875 -8.25 13.546875 -7.5 L 13.546875 0 L 9.625 0 L 9.625 -6.4375 C 9.625 -7.019531 9.429688 -7.53125 9.046875 -7.96875 C 8.671875 -8.414062 8.179688 -8.640625 7.578125 -8.640625 C 6.992188 -8.640625 6.457031 -8.410156 5.96875 -7.953125 C 5.488281 -7.492188 5.25 -6.988281 5.25 -6.4375 L 5.25 0 Z M 1.328125 0 "/></g></g></g><g fill="#cd001e" fill-opacity="1"><g transform="translate(113.045274, 45.317216)"><g><path d="M 1.890625 -18.109375 C 2.273438 -18.453125 2.71875 -18.625 3.21875 -18.625 C 3.71875 -18.625 4.160156 -18.453125 4.546875 -18.109375 C 4.929688 -17.773438 5.125 -17.394531 5.125 -16.96875 L 5.125 -16.875 C 5.125 -16.570312 5.007812 -15.894531 4.78125 -14.84375 C 4.550781 -13.789062 4.316406 -12.804688 4.078125 -11.890625 L 3.75 -10.53125 L 2.265625 -10.53125 C 1.640625 -14.082031 1.328125 -16.195312 1.328125 -16.875 L 1.328125 -16.96875 C 1.328125 -17.394531 1.515625 -17.773438 1.890625 -18.109375 Z M 1.890625 -18.109375 "/></g></g></g><g fill="#cd001e" fill-opacity="1"><g transform="translate(118.388091, 45.317216)"><g><path d="M 6.28125 -11.703125 C 6.925781 -11.703125 7.566406 -11.628906 8.203125 -11.484375 C 8.835938 -11.335938 9.3125 -11.191406 9.625 -11.046875 L 10.09375 -10.8125 L 8.796875 -8.25 C 7.910156 -8.71875 7.070312 -8.953125 6.28125 -8.953125 C 5.832031 -8.953125 5.515625 -8.90625 5.328125 -8.8125 C 5.148438 -8.71875 5.0625 -8.535156 5.0625 -8.265625 C 5.0625 -8.210938 5.066406 -8.15625 5.078125 -8.09375 C 5.085938 -8.03125 5.113281 -7.972656 5.15625 -7.921875 C 5.207031 -7.867188 5.25 -7.820312 5.28125 -7.78125 C 5.320312 -7.75 5.382812 -7.710938 5.46875 -7.671875 C 5.5625 -7.628906 5.632812 -7.59375 5.6875 -7.5625 C 5.738281 -7.539062 5.820312 -7.507812 5.9375 -7.46875 C 6.0625 -7.425781 6.148438 -7.394531 6.203125 -7.375 C 6.265625 -7.351562 6.363281 -7.316406 6.5 -7.265625 C 6.644531 -7.222656 6.753906 -7.195312 6.828125 -7.1875 C 7.285156 -7.050781 7.679688 -6.898438 8.015625 -6.734375 C 8.359375 -6.578125 8.71875 -6.359375 9.09375 -6.078125 C 9.476562 -5.796875 9.769531 -5.441406 9.96875 -5.015625 C 10.175781 -4.585938 10.28125 -4.097656 10.28125 -3.546875 C 10.28125 -0.960938 8.488281 0.328125 4.90625 0.328125 C 4.09375 0.328125 3.316406 0.203125 2.578125 -0.046875 C 1.847656 -0.296875 1.320312 -0.546875 1 -0.796875 L 0.515625 -1.203125 L 2.109375 -3.875 C 2.222656 -3.769531 2.375 -3.644531 2.5625 -3.5 C 2.757812 -3.363281 3.109375 -3.175781 3.609375 -2.9375 C 4.117188 -2.695312 4.554688 -2.578125 4.921875 -2.578125 C 5.734375 -2.578125 6.140625 -2.847656 6.140625 -3.390625 C 6.140625 -3.640625 6.035156 -3.832031 5.828125 -3.96875 C 5.617188 -4.113281 5.265625 -4.273438 4.765625 -4.453125 C 4.273438 -4.628906 3.890625 -4.789062 3.609375 -4.9375 C 2.898438 -5.3125 2.335938 -5.726562 1.921875 -6.1875 C 1.515625 -6.65625 1.3125 -7.273438 1.3125 -8.046875 C 1.3125 -9.203125 1.753906 -10.097656 2.640625 -10.734375 C 3.535156 -11.378906 4.75 -11.703125 6.28125 -11.703125 Z M 6.28125 -11.703125 "/></g></g></g><g fill="#cd001e" fill-opacity="1"><g transform="translate(128.177162, 45.317216)"><g/></g></g><g fill="#cd001e" fill-opacity="1"><g transform="translate(133.120886, 45.317216)"><g/></g></g><g fill="#cd001e" fill-opacity="1"><g transform="translate(138.064609, 45.317216)"><g/></g></g><g fill="#cd001e" fill-opacity="1"><g transform="translate(143.008332, 45.317216)"><g/></g></g><g fill="#ffffff" fill-opacity="1"><g transform="translate(147.946695, 45.317216)"><g><path d="M 2.109375 -1.40625 C 1.046875 -2.5625 0.515625 -3.984375 0.515625 -5.671875 C 0.515625 -7.359375 1.046875 -8.785156 2.109375 -9.953125 C 3.171875 -11.117188 4.519531 -11.703125 6.15625 -11.703125 C 7.664062 -11.703125 8.910156 -11.226562 9.890625 -10.28125 L 9.890625 -11.375 L 13.8125 -11.375 L 13.8125 0 L 9.9375 0 L 9.9375 -1.28125 L 9.890625 -1.28125 C 8.910156 -0.207031 7.664062 0.328125 6.15625 0.328125 C 4.519531 0.328125 3.171875 -0.25 2.109375 -1.40625 Z M 5.4375 -7.59375 C 4.925781 -7.09375 4.671875 -6.453125 4.671875 -5.671875 C 4.671875 -4.890625 4.914062 -4.25 5.40625 -3.75 C 5.894531 -3.257812 6.539062 -3.015625 7.34375 -3.015625 C 8.101562 -3.015625 8.734375 -3.265625 9.234375 -3.765625 C 9.734375 -4.265625 9.984375 -4.898438 9.984375 -5.671875 C 9.984375 -6.453125 9.726562 -7.09375 9.21875 -7.59375 C 8.707031 -8.101562 8.082031 -8.359375 7.34375 -8.359375 C 6.582031 -8.359375 5.945312 -8.101562 5.4375 -7.59375 Z M 5.4375 -7.59375 "/></g></g></g><g fill="#ffffff" fill-opacity="1"><g transform="translate(161.980871, 45.317216)"><g><path d="M 2 -11.375 L 2 -15.609375 L 5.921875 -15.609375 L 5.921875 -11.375 L 8.3125 -11.375 L 8.3125 -8.375 L 5.921875 -8.375 L 5.921875 -4.765625 C 5.921875 -3.710938 6.21875 -3.1875 6.8125 -3.1875 C 6.957031 -3.1875 7.109375 -3.21875 7.265625 -3.28125 C 7.429688 -3.34375 7.5625 -3.398438 7.65625 -3.453125 L 7.78125 -3.546875 L 8.765625 -0.375 C 7.921875 0.09375 6.957031 0.328125 5.875 0.328125 C 5.132812 0.328125 4.5 0.203125 3.96875 -0.046875 C 3.4375 -0.304688 3.03125 -0.65625 2.75 -1.09375 C 2.476562 -1.53125 2.285156 -1.988281 2.171875 -2.46875 C 2.054688 -2.945312 2 -3.460938 2 -4.015625 L 2 -8.375 L 0.359375 -8.375 L 0.359375 -11.375 Z M 2 -11.375 "/></g></g></g><g fill="#ffffff" fill-opacity="1"><g transform="translate(169.629554, 45.317216)"><g><path d="M 1.328125 0 L 1.328125 -19.0625 L 5.25 -19.0625 L 5.25 -10.171875 L 5.296875 -10.171875 C 6.316406 -11.191406 7.40625 -11.703125 8.5625 -11.703125 C 9.125 -11.703125 9.679688 -11.628906 10.234375 -11.484375 C 10.785156 -11.335938 11.316406 -11.109375 11.828125 -10.796875 C 12.335938 -10.484375 12.75 -10.039062 13.0625 -9.46875 C 13.382812 -8.90625 13.546875 -8.25 13.546875 -7.5 L 13.546875 0 L 9.625 0 L 9.625 -6.4375 C 9.625 -7.019531 9.429688 -7.53125 9.046875 -7.96875 C 8.671875 -8.414062 8.179688 -8.640625 7.578125 -8.640625 C 6.992188 -8.640625 6.457031 -8.410156 5.96875 -7.953125 C 5.488281 -7.492188 5.25 -6.988281 5.25 -6.4375 L 5.25 0 Z M 1.328125 0 "/></g></g></g><g fill="#cd001e" fill-opacity="1"><g transform="translate(3.379081, 44.873995)"><g><path d="M 10.832031 -3.484375 C 8.53125 -3.390625 3.648438 -3.625 3.648438 -9.480469 C 3.648438 -13.984375 6.707031 -15.714844 10.832031 -15.5 L 10.832031 -11.304688 L 14.457031 -11.304688 L 14.457031 -18.746094 C 14.457031 -18.839844 14.363281 -18.960938 14.195312 -18.960938 L 11.117188 -18.960938 C 6.46875 -18.960938 0 -17.894531 0 -9.480469 C 0 -1.375 6.398438 0 11.117188 0 L 14.195312 0 C 14.363281 0 14.457031 -0.117188 14.457031 -0.214844 L 14.457031 -3.484375 Z M 10.832031 -3.484375 "/></g></g></g><g fill="#ffffff" fill-opacity="1"><g transform="translate(136.387749, 44.873995)"><g><path d="M 6.375 -18.960938 L 0.238281 -18.960938 C 0.117188 -18.960938 0 -18.839844 0 -18.746094 L 0 -15.476562 L 6.375 -15.476562 C 6.800781 -15.476562 9.171875 -15.359375 9.171875 -13.273438 C 9.171875 -11.1875 6.847656 -11.140625 6.375 -11.140625 L 0 -11.140625 L 0 -0.214844 C 0 -0.117188 0.117188 0 0.238281 0 L 3.316406 0 C 3.484375 0 3.554688 -0.117188 3.554688 -0.214844 L 3.554688 -7.632812 L 6.375 -7.632812 C 6.824219 -7.632812 12.773438 -7.703125 12.773438 -13.273438 C 12.773438 -18.839844 7.132812 -18.960938 6.375 -18.960938 Z M 6.375 -18.960938 "/></g></g></g></svg>