<svg xmlns="http://www.w3.org/2000/svg" xmlns:xlink="http://www.w3.org/1999/xlink" width="250" zoomAndPan="magnify" viewBox="0 0 187.5 60" height="80" preserveAspectRatio="xMidYMid meet" version="1.0"><defs><g/><clipPath id="b4a5d1feb6"><path d="M 62.378906 7.105469 L 114 7.105469 L 114 31.855469 L 62.378906 31.855469 Z M 62.378906 7.105469 " clip-rule="nonzero"/></clipPath></defs><g clip-path="url(#b4a5d1feb6)"><path fill="#ffffff" d="M 113.527344 28.160156 C 113.324219 27.902344 113.015625 27.746094 112.734375 27.542969 C 112.554688 27.441406 112.347656 27.386719 112.222656 27.234375 C 112.117188 27.132812 112.015625 27.054688 111.914062 27.054688 C 111.503906 26.773438 110.453125 25.71875 110.246094 25.515625 C 110.222656 25.488281 110.222656 25.488281 110.195312 25.460938 C 109.914062 25.207031 109.65625 24.949219 109.375 24.691406 C 108.683594 24.101562 107.964844 23.539062 107.015625 23.382812 C 106.144531 23.253906 105.53125 22.714844 105.171875 21.917969 C 104.683594 20.839844 104.019531 19.917969 103.199219 19.042969 C 102.992188 18.839844 102.863281 18.554688 102.761719 18.273438 C 102.328125 17.015625 101.660156 15.910156 100.558594 15.140625 C 100.277344 14.9375 100.070312 14.679688 99.839844 14.421875 C 99.457031 14.039062 99.148438 13.574219 98.6875 13.292969 C 97.070312 12.292969 95.429688 11.34375 93.789062 10.367188 C 93.199219 10.03125 92.609375 9.699219 92.019531 9.390625 C 91.789062 9.261719 91.535156 9.160156 91.277344 9.160156 C 90.433594 9.160156 89.585938 9.238281 88.738281 9.210938 C 88.328125 9.210938 87.867188 9.109375 87.535156 8.929688 C 86.636719 8.414062 85.867188 7.617188 84.816406 7.335938 C 84.511719 7.257812 84.125 7.105469 83.871094 7.207031 C 82.765625 7.566406 81.535156 7.644531 80.589844 8.441406 C 80.511719 8.519531 80.382812 8.519531 80.28125 8.570312 C 80 8.722656 79.714844 8.878906 79.433594 9.03125 C 79.152344 9.183594 78.84375 9.519531 78.589844 9.46875 C 77.433594 9.289062 76.433594 9.671875 75.460938 10.109375 C 74.4375 10.570312 73.359375 10.546875 72.257812 10.546875 C 71.820312 10.546875 71.335938 10.570312 70.925781 10.726562 C 70.257812 11.007812 69.667969 11.417969 69.050781 11.777344 C 68.128906 12.316406 67.589844 13.113281 67.488281 14.167969 C 67.410156 14.886719 67.464844 15.628906 67.4375 16.375 C 67.4375 16.683594 67.4375 16.992188 67.335938 17.246094 C 66.949219 18.222656 66.847656 19.222656 66.898438 20.25 C 66.949219 21.175781 66.644531 21.972656 65.976562 22.585938 C 64.976562 23.539062 64.488281 24.71875 64.257812 26.027344 C 64.183594 26.488281 64.234375 27.027344 64.003906 27.441406 C 63.667969 28.03125 63.15625 28.542969 62.976562 29.238281 C 62.875 29.648438 62.722656 30.03125 62.644531 30.445312 C 62.488281 31.1875 62.847656 31.394531 63.746094 31.394531 C 64.363281 31.394531 65.003906 31.445312 65.617188 31.445312 C 66.15625 31.445312 66.71875 31.496094 67.257812 31.394531 C 67.515625 31.34375 67.875 31.007812 67.898438 30.777344 C 67.949219 30.390625 67.515625 30.445312 67.234375 30.367188 C 66.695312 30.238281 66.15625 30.058594 65.898438 29.492188 C 65.847656 29.367188 65.769531 29.289062 65.695312 29.238281 L 65.386719 28.75 C 65.4375 28.464844 65.4375 28.160156 65.566406 27.925781 C 66.078125 26.976562 66.617188 26.027344 67.15625 25.101562 C 67.464844 24.589844 67.847656 24.101562 68.230469 23.613281 C 68.539062 23.230469 68.667969 23.28125 68.898438 23.71875 C 69.15625 24.203125 69.410156 24.71875 69.769531 25.15625 C 70.128906 25.617188 70.667969 25.746094 70.925781 25.566406 C 71.207031 25.386719 71.230469 24.898438 70.847656 24.359375 C 70.359375 23.613281 70.335938 22.894531 70.617188 22.074219 C 70.746094 21.714844 70.871094 21.433594 71.230469 21.304688 C 72.257812 20.945312 73.28125 20.507812 74.332031 20.226562 C 75.203125 19.96875 75.382812 19.867188 75.382812 18.96875 C 75.382812 18.554688 75.382812 18.171875 75.382812 17.761719 C 76.203125 17.8125 76.308594 17.914062 76.203125 18.582031 C 76.050781 19.53125 76.152344 20.429688 76.5625 21.304688 C 76.898438 21.996094 77.382812 22.152344 78.101562 21.816406 C 78.84375 21.457031 79.359375 20.636719 80.304688 20.660156 C 80.382812 20.660156 80.460938 20.535156 80.535156 20.507812 C 80.664062 20.457031 80.792969 20.355469 80.921875 20.378906 C 81.355469 20.40625 81.640625 20.199219 81.894531 19.890625 C 82.152344 19.582031 82.460938 19.453125 82.84375 19.480469 C 83.101562 19.507812 83.382812 19.453125 83.640625 19.507812 C 84.664062 19.6875 85.691406 19.507812 86.6875 19.300781 C 87.097656 19.222656 87.484375 18.96875 87.867188 18.789062 C 88.304688 18.582031 88.714844 18.300781 89.175781 18.171875 C 90.023438 17.941406 90.765625 17.605469 91.277344 16.835938 C 91.484375 16.527344 91.738281 16.476562 92.097656 16.605469 C 93.277344 17.042969 94.480469 17.453125 95.738281 17.890625 C 94.996094 18.144531 94.277344 18.25 93.6875 18.632812 C 92.429688 19.429688 91.199219 20.277344 90.203125 21.40625 C 89.84375 21.792969 89.816406 22.175781 89.945312 22.613281 C 90.175781 23.359375 90.433594 24.078125 90.6875 24.796875 C 90.84375 25.207031 90.945312 25.617188 91.148438 25.976562 C 91.6875 26.976562 92.226562 27.953125 92.175781 29.160156 C 92.148438 29.46875 92.125 29.699219 91.84375 29.800781 C 91.175781 30.03125 90.507812 30.265625 89.84375 30.445312 C 89.382812 30.570312 89.226562 30.75 89.433594 31.214844 C 89.664062 31.726562 90.125 31.855469 90.585938 31.855469 C 91.816406 31.828125 93.074219 31.753906 94.304688 31.703125 C 94.714844 31.675781 94.890625 31.46875 94.789062 31.085938 C 94.636719 30.46875 94.457031 29.851562 94.277344 29.238281 C 94.199219 29.03125 93.839844 27.671875 93.839844 27.671875 C 93.765625 27.3125 93.714844 26.925781 93.6875 26.566406 C 93.558594 25.4375 93.558594 24.308594 92.917969 23.28125 C 92.738281 22.996094 92.867188 22.765625 93.199219 22.714844 C 93.660156 22.636719 94.148438 22.636719 94.609375 22.585938 C 95.25 22.511719 95.945312 22.511719 96.558594 22.277344 C 97.558594 21.917969 98.507812 21.40625 99.480469 20.96875 C 99.636719 20.894531 99.941406 20.894531 100.070312 20.996094 C 100.660156 21.484375 101.25 21.945312 101.738281 22.511719 C 102.660156 23.5625 103.710938 24.488281 105.042969 24.949219 C 106.914062 25.589844 108.683594 26.414062 110.195312 27.695312 C 110.707031 28.105469 110.632812 28.722656 110.066406 29.058594 C 109.8125 29.210938 109.375 29.3125 109.53125 29.699219 C 109.605469 29.90625 110.015625 30.007812 110.273438 30.136719 C 110.375 30.1875 110.476562 30.160156 110.605469 30.160156 C 111.554688 30.210938 112.425781 29.90625 113.246094 29.46875 C 113.914062 29.109375 114.015625 28.75 113.527344 28.160156 Z M 71.976562 18.324219 C 71.488281 18.734375 70.949219 19.121094 70.410156 19.558594 C 70.691406 18.710938 70.976562 17.890625 71.28125 16.9375 C 71.566406 17.296875 71.820312 17.605469 72.027344 17.941406 C 72.050781 18.042969 72.027344 18.273438 71.976562 18.324219 Z M 86.765625 17.296875 C 86.664062 17.402344 86.511719 17.476562 86.355469 17.503906 C 85.511719 17.710938 84.636719 17.890625 83.792969 18.070312 C 83.613281 18.121094 83.40625 18.09375 83.203125 18.09375 C 83.230469 17.914062 83.230469 17.734375 83.28125 17.554688 C 83.382812 17.144531 83.230469 16.886719 82.742188 16.707031 C 82.304688 16.554688 82 16.683594 81.84375 17.042969 C 81.820312 17.117188 81.792969 17.222656 81.742188 17.246094 C 80.820312 17.835938 79.894531 18.402344 78.972656 18.96875 C 78.949219 18.992188 78.921875 18.96875 78.820312 18.96875 C 78.820312 18.8125 78.792969 18.632812 78.820312 18.480469 C 78.949219 17.53125 79.101562 16.578125 79.253906 15.65625 C 79.28125 15.5 79.460938 15.296875 79.613281 15.269531 C 79.949219 15.167969 80.304688 15.089844 80.640625 15.117188 C 80.921875 15.140625 81.179688 15.320312 81.410156 15.5 C 81.945312 15.886719 81.972656 15.835938 82.460938 15.398438 C 82.742188 15.117188 83.355469 15.117188 83.535156 14.808594 C 83.742188 14.449219 83.921875 14.167969 84.332031 13.988281 C 84.511719 13.910156 84.691406 13.652344 84.714844 13.472656 C 84.84375 12.753906 84.5625 12.113281 84.125 11.546875 C 84.050781 11.445312 83.945312 11.34375 83.792969 11.136719 C 84.433594 11.085938 84.945312 11.035156 85.484375 11.007812 C 85.765625 11.007812 85.867188 11.136719 85.742188 11.445312 C 85.613281 11.804688 85.484375 12.164062 85.457031 12.523438 C 85.40625 13.191406 85.84375 13.601562 86.332031 13.960938 C 86.40625 14.011719 86.535156 14.039062 86.5625 14.113281 C 86.742188 14.679688 87.277344 14.679688 87.714844 14.859375 C 88.046875 15.011719 88.328125 15.296875 88.585938 15.476562 C 87.945312 16.117188 87.355469 16.707031 86.765625 17.296875 Z M 86.765625 17.296875 " fill-opacity="1" fill-rule="nonzero"/></g><g fill="#cd001e" fill-opacity="1"><g transform="translate(3.723601, 45.579329)"><g><path d="M 11.078125 -3.765625 C 11.710938 -3.765625 12.328125 -3.859375 12.921875 -4.046875 C 13.523438 -4.242188 13.96875 -4.429688 14.25 -4.609375 L 14.671875 -4.90625 L 16.4375 -1.359375 C 16.382812 -1.304688 16.304688 -1.242188 16.203125 -1.171875 C 16.097656 -1.097656 15.851562 -0.960938 15.46875 -0.765625 C 15.09375 -0.566406 14.691406 -0.390625 14.265625 -0.234375 C 13.835938 -0.0859375 13.273438 0.0390625 12.578125 0.15625 C 11.878906 0.269531 11.160156 0.328125 10.421875 0.328125 C 8.722656 0.328125 7.113281 -0.0859375 5.59375 -0.921875 C 4.070312 -1.753906 2.84375 -2.898438 1.90625 -4.359375 C 0.976562 -5.828125 0.515625 -7.414062 0.515625 -9.125 C 0.515625 -10.40625 0.785156 -11.632812 1.328125 -12.8125 C 1.878906 -14 2.609375 -15.015625 3.515625 -15.859375 C 4.421875 -16.703125 5.476562 -17.375 6.6875 -17.875 C 7.90625 -18.382812 9.148438 -18.640625 10.421875 -18.640625 C 11.609375 -18.640625 12.703125 -18.5 13.703125 -18.21875 C 14.703125 -17.9375 15.40625 -17.65625 15.8125 -17.375 L 16.4375 -16.953125 L 14.671875 -13.40625 C 14.566406 -13.488281 14.410156 -13.59375 14.203125 -13.71875 C 13.992188 -13.84375 13.578125 -14.007812 12.953125 -14.21875 C 12.335938 -14.425781 11.710938 -14.53125 11.078125 -14.53125 C 10.066406 -14.53125 9.160156 -14.367188 8.359375 -14.046875 C 7.566406 -13.722656 6.9375 -13.289062 6.46875 -12.75 C 6 -12.21875 5.640625 -11.644531 5.390625 -11.03125 C 5.148438 -10.425781 5.03125 -9.800781 5.03125 -9.15625 C 5.03125 -7.769531 5.550781 -6.523438 6.59375 -5.421875 C 7.644531 -4.316406 9.140625 -3.765625 11.078125 -3.765625 Z M 11.078125 -3.765625 "/></g></g></g><g fill="#cd001e" fill-opacity="1"><g transform="translate(19.31779, 45.579329)"><g><path d="M 1.328125 0 L 1.328125 -19.078125 L 5.265625 -19.078125 L 5.265625 -10.1875 L 5.296875 -10.1875 C 6.316406 -11.207031 7.40625 -11.71875 8.5625 -11.71875 C 9.125 -11.71875 9.679688 -11.640625 10.234375 -11.484375 C 10.796875 -11.335938 11.332031 -11.109375 11.84375 -10.796875 C 12.351562 -10.492188 12.765625 -10.054688 13.078125 -9.484375 C 13.398438 -8.910156 13.5625 -8.25 13.5625 -7.5 L 13.5625 0 L 9.625 0 L 9.625 -6.4375 C 9.625 -7.03125 9.4375 -7.546875 9.0625 -7.984375 C 8.6875 -8.429688 8.195312 -8.65625 7.59375 -8.65625 C 7 -8.65625 6.460938 -8.425781 5.984375 -7.96875 C 5.503906 -7.507812 5.265625 -7 5.265625 -6.4375 L 5.265625 0 Z M 1.328125 0 "/></g></g></g><g fill="#cd001e" fill-opacity="1"><g transform="translate(32.871195, 45.579329)"><g><path d="M 2.109375 -1.40625 C 1.046875 -2.570312 0.515625 -3.992188 0.515625 -5.671875 C 0.515625 -7.359375 1.046875 -8.785156 2.109375 -9.953125 C 3.171875 -11.128906 4.523438 -11.71875 6.171875 -11.71875 C 7.679688 -11.71875 8.921875 -11.242188 9.890625 -10.296875 L 9.890625 -11.375 L 13.828125 -11.375 L 13.828125 0 L 9.9375 0 L 9.9375 -1.28125 L 9.890625 -1.28125 C 8.921875 -0.207031 7.679688 0.328125 6.171875 0.328125 C 4.523438 0.328125 3.171875 -0.25 2.109375 -1.40625 Z M 5.453125 -7.609375 C 4.941406 -7.109375 4.6875 -6.460938 4.6875 -5.671875 C 4.6875 -4.890625 4.925781 -4.25 5.40625 -3.75 C 5.894531 -3.257812 6.539062 -3.015625 7.34375 -3.015625 C 8.113281 -3.015625 8.742188 -3.265625 9.234375 -3.765625 C 9.734375 -4.273438 9.984375 -4.914062 9.984375 -5.6875 C 9.984375 -6.46875 9.726562 -7.109375 9.21875 -7.609375 C 8.707031 -8.109375 8.082031 -8.359375 7.34375 -8.359375 C 6.59375 -8.359375 5.960938 -8.109375 5.453125 -7.609375 Z M 5.453125 -7.609375 "/></g></g></g><g fill="#cd001e" fill-opacity="1"><g transform="translate(46.912611, 45.579329)"><g><path d="M 1.328125 0 L 1.328125 -11.375 L 5.265625 -11.375 L 5.265625 -10.1875 L 5.296875 -10.1875 C 6.316406 -11.207031 7.40625 -11.71875 8.5625 -11.71875 C 9.394531 -11.71875 10.171875 -11.546875 10.890625 -11.203125 C 11.617188 -10.859375 12.164062 -10.332031 12.53125 -9.625 C 13.6875 -11.019531 14.945312 -11.71875 16.3125 -11.71875 C 17.519531 -11.71875 18.5625 -11.375 19.4375 -10.6875 C 20.3125 -10.007812 20.75 -8.945312 20.75 -7.5 L 20.75 0 L 16.8125 0 L 16.8125 -6.4375 C 16.8125 -7.039062 16.644531 -7.546875 16.3125 -7.953125 C 15.976562 -8.359375 15.484375 -8.5625 14.828125 -8.5625 C 14.242188 -8.5625 13.800781 -8.382812 13.5 -8.03125 C 13.195312 -7.6875 13.03125 -7.273438 13 -6.796875 L 13 0 L 9.078125 0 L 9.078125 -6.4375 C 9.078125 -7.039062 8.910156 -7.546875 8.578125 -7.953125 C 8.242188 -8.359375 7.742188 -8.5625 7.078125 -8.5625 C 6.472656 -8.5625 6.019531 -8.375 5.71875 -8 C 5.414062 -7.625 5.265625 -7.175781 5.265625 -6.65625 L 5.265625 0 Z M 1.328125 0 "/></g></g></g><g fill="#cd001e" fill-opacity="1"><g transform="translate(67.653122, 45.579329)"><g><path d="M 13.046875 -9.96875 C 14.109375 -8.8125 14.640625 -7.390625 14.640625 -5.703125 C 14.640625 -4.015625 14.109375 -2.585938 13.046875 -1.421875 C 11.984375 -0.253906 10.628906 0.328125 8.984375 0.328125 C 7.472656 0.328125 6.234375 -0.144531 5.265625 -1.09375 L 5.265625 5.765625 L 1.328125 5.765625 L 1.328125 -11.375 L 5.21875 -11.375 L 5.21875 -10.09375 L 5.265625 -10.09375 C 6.234375 -11.175781 7.472656 -11.71875 8.984375 -11.71875 C 10.628906 -11.71875 11.984375 -11.132812 13.046875 -9.96875 Z M 9.703125 -3.765625 C 10.210938 -4.273438 10.46875 -4.921875 10.46875 -5.703125 C 10.46875 -6.484375 10.222656 -7.117188 9.734375 -7.609375 C 9.253906 -8.109375 8.613281 -8.359375 7.8125 -8.359375 C 7.039062 -8.359375 6.40625 -8.109375 5.90625 -7.609375 C 5.414062 -7.109375 5.171875 -6.472656 5.171875 -5.703125 C 5.171875 -4.921875 5.425781 -4.273438 5.9375 -3.765625 C 6.445312 -3.265625 7.070312 -3.015625 7.8125 -3.015625 C 8.5625 -3.015625 9.191406 -3.265625 9.703125 -3.765625 Z M 9.703125 -3.765625 "/></g></g></g><g fill="#cd001e" fill-opacity="1"><g transform="translate(81.694535, 45.579329)"><g><path d="M 1.703125 -17.734375 C 2.160156 -18.191406 2.707031 -18.421875 3.34375 -18.421875 C 3.976562 -18.421875 4.523438 -18.191406 4.984375 -17.734375 C 5.453125 -17.273438 5.6875 -16.722656 5.6875 -16.078125 C 5.6875 -15.441406 5.453125 -14.894531 4.984375 -14.4375 C 4.523438 -13.976562 3.976562 -13.75 3.34375 -13.75 C 2.707031 -13.75 2.160156 -13.976562 1.703125 -14.4375 C 1.242188 -14.894531 1.015625 -15.441406 1.015625 -16.078125 C 1.015625 -16.722656 1.242188 -17.273438 1.703125 -17.734375 Z M 1.328125 -11.375 L 1.328125 0 L 5.265625 0 L 5.265625 -11.375 Z M 1.328125 -11.375 "/></g></g></g><g fill="#cd001e" fill-opacity="1"><g transform="translate(87.284439, 45.579329)"><g><path d="M 2.40625 -1.359375 C 1.144531 -2.484375 0.515625 -3.921875 0.515625 -5.671875 C 0.515625 -7.429688 1.171875 -8.878906 2.484375 -10.015625 C 3.796875 -11.148438 5.421875 -11.71875 7.359375 -11.71875 C 9.273438 -11.71875 10.882812 -11.144531 12.1875 -10 C 13.5 -8.863281 14.15625 -7.421875 14.15625 -5.671875 C 14.15625 -3.929688 13.515625 -2.492188 12.234375 -1.359375 C 10.953125 -0.234375 9.328125 0.328125 7.359375 0.328125 C 5.316406 0.328125 3.664062 -0.234375 2.40625 -1.359375 Z M 5.453125 -7.609375 C 4.941406 -7.109375 4.6875 -6.460938 4.6875 -5.671875 C 4.6875 -4.890625 4.925781 -4.25 5.40625 -3.75 C 5.894531 -3.257812 6.539062 -3.015625 7.34375 -3.015625 C 8.113281 -3.015625 8.742188 -3.265625 9.234375 -3.765625 C 9.734375 -4.273438 9.984375 -4.914062 9.984375 -5.6875 C 9.984375 -6.46875 9.726562 -7.109375 9.21875 -7.609375 C 8.707031 -8.109375 8.082031 -8.359375 7.34375 -8.359375 C 6.59375 -8.359375 5.960938 -8.109375 5.453125 -7.609375 Z M 5.453125 -7.609375 "/></g></g></g><g fill="#cd001e" fill-opacity="1"><g transform="translate(100.837842, 45.579329)"><g><path d="M 1.328125 0 L 1.328125 -11.375 L 5.265625 -11.375 L 5.265625 -10.1875 L 5.296875 -10.1875 C 6.316406 -11.207031 7.40625 -11.71875 8.5625 -11.71875 C 9.125 -11.71875 9.679688 -11.640625 10.234375 -11.484375 C 10.796875 -11.335938 11.332031 -11.109375 11.84375 -10.796875 C 12.351562 -10.492188 12.765625 -10.054688 13.078125 -9.484375 C 13.398438 -8.910156 13.5625 -8.25 13.5625 -7.5 L 13.5625 0 L 9.625 0 L 9.625 -6.4375 C 9.625 -7.03125 9.4375 -7.546875 9.0625 -7.984375 C 8.6875 -8.429688 8.195312 -8.65625 7.59375 -8.65625 C 7 -8.65625 6.460938 -8.425781 5.984375 -7.96875 C 5.503906 -7.507812 5.265625 -7 5.265625 -6.4375 L 5.265625 0 Z M 1.328125 0 "/></g></g></g><g fill="#cd001e" fill-opacity="1"><g transform="translate(114.391252, 45.579329)"><g><path d="M 1.890625 -18.125 C 2.273438 -18.46875 2.71875 -18.640625 3.21875 -18.640625 C 3.71875 -18.640625 4.160156 -18.46875 4.546875 -18.125 C 4.929688 -17.78125 5.125 -17.394531 5.125 -16.96875 L 5.125 -16.890625 C 5.125 -16.585938 5.007812 -15.90625 4.78125 -14.84375 C 4.550781 -13.789062 4.316406 -12.804688 4.078125 -11.890625 L 3.75 -10.53125 L 2.265625 -10.53125 C 1.640625 -14.082031 1.328125 -16.203125 1.328125 -16.890625 L 1.328125 -16.96875 C 1.328125 -17.394531 1.515625 -17.78125 1.890625 -18.125 Z M 1.890625 -18.125 "/></g></g></g><g fill="#cd001e" fill-opacity="1"><g transform="translate(119.737154, 45.579329)"><g><path d="M 6.28125 -11.71875 C 6.925781 -11.71875 7.566406 -11.640625 8.203125 -11.484375 C 8.835938 -11.335938 9.3125 -11.191406 9.625 -11.046875 L 10.09375 -10.828125 L 8.8125 -8.25 C 7.925781 -8.726562 7.082031 -8.96875 6.28125 -8.96875 C 5.832031 -8.96875 5.515625 -8.914062 5.328125 -8.8125 C 5.148438 -8.71875 5.0625 -8.539062 5.0625 -8.28125 C 5.0625 -8.21875 5.066406 -8.15625 5.078125 -8.09375 C 5.097656 -8.039062 5.128906 -7.988281 5.171875 -7.9375 C 5.210938 -7.882812 5.25 -7.835938 5.28125 -7.796875 C 5.320312 -7.765625 5.382812 -7.722656 5.46875 -7.671875 C 5.5625 -7.628906 5.632812 -7.597656 5.6875 -7.578125 C 5.738281 -7.554688 5.820312 -7.519531 5.9375 -7.46875 C 6.0625 -7.425781 6.148438 -7.394531 6.203125 -7.375 C 6.265625 -7.351562 6.363281 -7.316406 6.5 -7.265625 C 6.644531 -7.222656 6.753906 -7.195312 6.828125 -7.1875 C 7.285156 -7.050781 7.6875 -6.898438 8.03125 -6.734375 C 8.375 -6.578125 8.734375 -6.359375 9.109375 -6.078125 C 9.484375 -5.796875 9.773438 -5.441406 9.984375 -5.015625 C 10.191406 -4.585938 10.296875 -4.097656 10.296875 -3.546875 C 10.296875 -0.960938 8.5 0.328125 4.90625 0.328125 C 4.09375 0.328125 3.316406 0.203125 2.578125 -0.046875 C 1.847656 -0.296875 1.320312 -0.546875 1 -0.796875 L 0.515625 -1.203125 L 2.109375 -3.875 C 2.222656 -3.78125 2.375 -3.660156 2.5625 -3.515625 C 2.757812 -3.378906 3.109375 -3.1875 3.609375 -2.9375 C 4.117188 -2.695312 4.554688 -2.578125 4.921875 -2.578125 C 5.734375 -2.578125 6.140625 -2.847656 6.140625 -3.390625 C 6.140625 -3.640625 6.035156 -3.832031 5.828125 -3.96875 C 5.628906 -4.113281 5.28125 -4.273438 4.78125 -4.453125 C 4.28125 -4.628906 3.890625 -4.796875 3.609375 -4.953125 C 2.898438 -5.316406 2.335938 -5.734375 1.921875 -6.203125 C 1.515625 -6.671875 1.3125 -7.285156 1.3125 -8.046875 C 1.3125 -9.203125 1.757812 -10.101562 2.65625 -10.75 C 3.550781 -11.394531 4.757812 -11.71875 6.28125 -11.71875 Z M 6.28125 -11.71875 "/></g></g></g><g fill="#cd001e" fill-opacity="1"><g transform="translate(129.54172, 45.579329)"><g/></g></g><g fill="#ffffff" fill-opacity="1"><g transform="translate(134.487187, 45.579329)"><g><path d="M 1.328125 -18.296875 L 8.015625 -18.296875 C 9.878906 -18.296875 11.382812 -17.816406 12.53125 -16.859375 C 13.6875 -15.898438 14.265625 -14.503906 14.265625 -12.671875 C 14.265625 -10.835938 13.679688 -9.398438 12.515625 -8.359375 C 11.347656 -7.316406 9.847656 -6.796875 8.015625 -6.796875 L 5.5 -6.796875 L 5.5 0 L 1.328125 0 Z M 5.5 -10.125 L 6.671875 -10.125 C 7.609375 -10.125 8.375 -10.3125 8.96875 -10.6875 C 9.570312 -11.0625 9.875 -11.675781 9.875 -12.53125 C 9.875 -13.40625 9.570312 -14.03125 8.96875 -14.40625 C 8.375 -14.78125 7.609375 -14.96875 6.671875 -14.96875 L 5.5 -14.96875 Z M 5.5 -10.125 "/></g></g></g><g fill="#ffffff" fill-opacity="1"><g transform="translate(148.151501, 45.579329)"><g><path d="M 2.109375 -1.40625 C 1.046875 -2.570312 0.515625 -3.992188 0.515625 -5.671875 C 0.515625 -7.359375 1.046875 -8.785156 2.109375 -9.953125 C 3.171875 -11.128906 4.523438 -11.71875 6.171875 -11.71875 C 7.679688 -11.71875 8.921875 -11.242188 9.890625 -10.296875 L 9.890625 -11.375 L 13.828125 -11.375 L 13.828125 0 L 9.9375 0 L 9.9375 -1.28125 L 9.890625 -1.28125 C 8.921875 -0.207031 7.679688 0.328125 6.171875 0.328125 C 4.523438 0.328125 3.171875 -0.25 2.109375 -1.40625 Z M 5.453125 -7.609375 C 4.941406 -7.109375 4.6875 -6.460938 4.6875 -5.671875 C 4.6875 -4.890625 4.925781 -4.25 5.40625 -3.75 C 5.894531 -3.257812 6.539062 -3.015625 7.34375 -3.015625 C 8.113281 -3.015625 8.742188 -3.265625 9.234375 -3.765625 C 9.734375 -4.273438 9.984375 -4.914062 9.984375 -5.6875 C 9.984375 -6.46875 9.726562 -7.109375 9.21875 -7.609375 C 8.707031 -8.109375 8.082031 -8.359375 7.34375 -8.359375 C 6.59375 -8.359375 5.960938 -8.109375 5.453125 -7.609375 Z M 5.453125 -7.609375 "/></g></g></g><g fill="#ffffff" fill-opacity="1"><g transform="translate(162.192915, 45.579329)"><g><path d="M 2 -11.375 L 2 -15.625 L 5.921875 -15.625 L 5.921875 -11.375 L 8.3125 -11.375 L 8.3125 -8.390625 L 5.921875 -8.390625 L 5.921875 -4.765625 C 5.921875 -3.710938 6.21875 -3.1875 6.8125 -3.1875 C 6.957031 -3.1875 7.109375 -3.21875 7.265625 -3.28125 C 7.429688 -3.34375 7.5625 -3.40625 7.65625 -3.46875 L 7.78125 -3.546875 L 8.765625 -0.375 C 7.921875 0.09375 6.957031 0.328125 5.875 0.328125 C 5.132812 0.328125 4.5 0.203125 3.96875 -0.046875 C 3.4375 -0.304688 3.035156 -0.65625 2.765625 -1.09375 C 2.492188 -1.53125 2.296875 -1.988281 2.171875 -2.46875 C 2.054688 -2.945312 2 -3.460938 2 -4.015625 L 2 -8.390625 L 0.359375 -8.390625 L 0.359375 -11.375 Z M 2 -11.375 "/></g></g></g><g fill="#ffffff" fill-opacity="1"><g transform="translate(169.845791, 45.579329)"><g><path d="M 1.328125 0 L 1.328125 -19.078125 L 5.265625 -19.078125 L 5.265625 -10.1875 L 5.296875 -10.1875 C 6.316406 -11.207031 7.40625 -11.71875 8.5625 -11.71875 C 9.125 -11.71875 9.679688 -11.640625 10.234375 -11.484375 C 10.796875 -11.335938 11.332031 -11.109375 11.84375 -10.796875 C 12.351562 -10.492188 12.765625 -10.054688 13.078125 -9.484375 C 13.398438 -8.910156 13.5625 -8.25 13.5625 -7.5 L 13.5625 0 L 9.625 0 L 9.625 -6.4375 C 9.625 -7.03125 9.4375 -7.546875 9.0625 -7.984375 C 8.6875 -8.429688 8.195312 -8.65625 7.59375 -8.65625 C 7 -8.65625 6.460938 -8.425781 5.984375 -7.96875 C 5.503906 -7.507812 5.265625 -7 5.265625 -6.4375 L 5.265625 0 Z M 1.328125 0 "/></g></g></g></svg>