<svg xmlns="http://www.w3.org/2000/svg" xmlns:xlink="http://www.w3.org/1999/xlink" width="500" zoomAndPan="magnify" viewBox="0 0 375 374.999991" height="500" preserveAspectRatio="xMidYMid meet" version="1.0"><path fill="#ffffff" d="M 372.148438 84.320312 C 370.246094 82.894531 367.710938 82.65625 365.570312 83.765625 L 341.875 95.574219 L 290.839844 89.867188 C 287.035156 89.46875 283.152344 90.023438 279.664062 91.53125 L 265.164062 97.710938 L 266.429688 87.410156 L 351.859375 50.796875 C 354.871094 49.53125 356.457031 46.121094 355.347656 42.953125 L 342.667969 4.914062 C 341.953125 2.695312 339.972656 1.03125 337.675781 0.632812 C 335.375 0.238281 333 1.1875 331.570312 3.089844 L 314.136719 26.390625 L 243.6875 37.246094 C 236.632812 38.355469 229.738281 40.972656 223.796875 44.933594 C 215.472656 50.480469 209.054688 58.328125 205.332031 67.675781 L 186.074219 115.859375 L 154.691406 124.816406 L 158.972656 103.339844 C 159.207031 102.148438 159.128906 100.882812 158.652344 99.773438 L 145.972656 68.074219 C 145.023438 65.695312 142.644531 64.113281 140.109375 64.113281 L 121.089844 64.113281 C 117.605469 64.113281 114.75 66.964844 114.75 70.449219 L 114.75 93.910156 L 105.796875 107.378906 L 86.0625 96.523438 C 83.605469 95.175781 80.515625 95.652344 78.535156 97.632812 L 70.453125 105.714844 C 66.804688 103.578125 62.527344 102.308594 58.007812 102.230469 L 45.328125 102.070312 C 38.59375 101.914062 32.175781 104.527344 27.339844 109.28125 C 22.507812 114.039062 19.734375 120.378906 19.652344 127.113281 C 19.574219 133.847656 22.109375 140.269531 26.863281 145.101562 C 31.621094 149.9375 37.960938 152.710938 44.695312 152.789062 L 49.132812 152.867188 L 46.28125 169.828125 L 15.292969 159.527344 C 11.964844 158.417969 8.398438 160.238281 7.289062 163.566406 L 0.949219 182.585938 C 0 185.359375 1.109375 188.449219 3.566406 189.957031 L 53.570312 221.179688 C 53.492188 226.488281 54.996094 231.640625 58.089844 236.078125 C 63 243.132812 70.925781 246.9375 78.929688 246.9375 C 83.921875 246.9375 88.914062 245.507812 93.355469 242.417969 L 103.734375 235.207031 C 103.734375 235.207031 103.8125 235.207031 103.8125 235.128906 C 103.8125 235.128906 103.8125 235.128906 103.894531 235.128906 C 104.371094 234.8125 104.765625 234.492188 105.242188 234.097656 C 106.746094 237.902344 108.726562 241.46875 111.183594 244.796875 L 111.34375 244.953125 C 118.714844 254.78125 129.492188 261.121094 141.617188 262.863281 L 212.78125 273.007812 L 240.515625 290.363281 L 228.945312 348.136719 C 228.628906 349.800781 228.945312 351.464844 229.898438 352.890625 L 242.578125 371.910156 C 243.765625 373.652344 245.746094 374.761719 247.886719 374.761719 L 311.285156 374.761719 C 313.503906 374.761719 315.5625 373.574219 316.753906 371.671875 C 317.941406 369.769531 317.941406 367.390625 316.832031 365.410156 L 304.152344 341.953125 L 315.960938 277.050781 C 317.386719 269.285156 314.535156 261.28125 308.433594 256.128906 L 236.15625 194.949219 C 243.050781 190.667969 248.601562 184.726562 252.324219 177.59375 L 307.242188 133.691406 L 362.003906 133.691406 C 365.09375 133.691406 367.710938 131.472656 368.265625 128.382812 L 374.605469 90.34375 C 375 88.042969 374.050781 85.746094 372.148438 84.320312 Z M 263.023438 114.273438 L 278.636719 140.269531 L 257.632812 157.070312 Z M 334.425781 20.445312 L 341.398438 41.445312 L 333.554688 44.855469 L 325.3125 32.570312 Z M 217.136719 72.433594 C 219.914062 65.539062 224.667969 59.671875 230.847656 55.550781 C 235.285156 52.621094 240.359375 50.640625 245.589844 49.847656 L 314.613281 39.226562 L 321.746094 49.925781 L 258.109375 77.1875 C 256.050781 78.058594 254.621094 79.960938 254.304688 82.257812 L 252.722656 95.175781 L 212.144531 85.03125 Z M 192.570312 127.191406 C 194.472656 126.636719 195.980469 125.289062 196.691406 123.46875 L 207.3125 96.917969 L 250.898438 107.777344 C 250.898438 108.171875 250.898438 108.488281 250.976562 108.886719 L 244.480469 160.953125 C 244.082031 164.199219 243.132812 167.292969 241.863281 170.222656 C 241.546875 170.699219 241.230469 171.253906 241.070312 171.808594 C 237.503906 178.625 231.640625 184.011719 224.191406 186.867188 C 221.972656 187.738281 219.675781 188.292969 217.296875 188.6875 L 163.804688 179.101562 L 160.082031 147.558594 C 159.683594 143.914062 158.335938 140.507812 156.355469 137.574219 Z M 126.398438 99.21875 C 127.113281 98.1875 127.429688 96.917969 127.429688 95.730469 L 127.429688 76.710938 L 135.832031 76.710938 L 146.210938 102.703125 L 141.378906 126.71875 L 116.96875 113.402344 Z M 89.3125 219.832031 L 77.347656 207.234375 L 82.101562 203.902344 C 84.320312 202.398438 86.855469 201.683594 89.3125 201.683594 C 93.355469 201.683594 97.316406 203.585938 99.773438 207.152344 C 103.179688 212.066406 102.625 218.644531 98.742188 222.921875 Z M 106.191406 165.546875 C 96.523438 156.988281 84.875 151.125 72.351562 148.351562 C 73.382812 147.558594 74.414062 146.765625 75.363281 145.816406 C 79.167969 142.089844 81.703125 137.414062 82.574219 132.265625 L 106.984375 155.40625 Z M 70.371094 127.746094 C 70.292969 131.15625 68.945312 134.324219 66.566406 136.703125 C 64.746094 138.523438 62.445312 139.632812 59.992188 140.109375 L 51.351562 131.234375 L 51.667969 114.828125 L 57.851562 114.910156 C 64.824219 114.988281 70.453125 120.773438 70.371094 127.746094 Z M 32.332031 127.273438 C 32.414062 123.863281 33.757812 120.695312 36.136719 118.316406 C 37.007812 117.523438 37.960938 116.8125 38.988281 116.257812 L 38.671875 133.613281 C 38.671875 135.277344 39.308594 136.941406 40.417969 138.128906 L 42 139.714844 C 39.703125 139.160156 37.644531 137.96875 35.976562 136.226562 C 33.601562 133.847656 32.253906 130.679688 32.332031 127.273438 Z M 17.355469 173.472656 L 49.371094 184.171875 C 51.113281 184.726562 53.097656 184.566406 54.679688 183.617188 C 56.265625 182.664062 57.375 181.082031 57.691406 179.257812 L 61.019531 159.445312 C 78.136719 160.871094 93.828125 169.035156 104.925781 182.347656 L 103.972656 193.523438 C 101.039062 191.460938 97.632812 190.035156 93.988281 189.402344 C 87.332031 188.214844 80.59375 189.640625 75.046875 193.523438 C 75.046875 193.523438 59.199219 205.488281 57.375 208.5 L 14.660156 181.792969 Z M 68.550781 228.789062 C 66.648438 226.015625 65.855469 222.605469 66.488281 219.277344 C 66.726562 217.929688 67.203125 216.664062 67.835938 215.554688 L 81.308594 229.738281 C 82.019531 230.53125 82.972656 231.085938 84.003906 231.402344 L 86.0625 232.039062 C 80.277344 235.921875 72.511719 234.414062 68.550781 228.789062 Z M 121.488281 237.265625 L 121.328125 237.109375 C 116.414062 230.609375 114.117188 222.527344 114.75 214.363281 L 119.824219 153.265625 C 119.980469 151.363281 119.269531 149.460938 117.839844 148.113281 L 80.992188 113.164062 L 84.242188 109.917969 L 142.644531 141.773438 C 145.339844 143.28125 147.164062 145.972656 147.558594 148.984375 L 151.839844 185.203125 C 152.15625 187.976562 154.296875 190.195312 156.988281 190.667969 L 165.3125 192.175781 L 159.761719 231.246094 L 133.292969 247.09375 C 128.699219 244.796875 124.65625 241.46875 121.488281 237.265625 Z M 215.949219 260.644531 L 150.886719 251.375 L 168.71875 240.675781 C 170.382812 239.722656 171.492188 238.058594 171.730469 236.15625 L 177.671875 194.472656 L 226.015625 203.113281 L 274.433594 244.082031 L 245.667969 278.636719 L 218.328125 261.597656 C 217.691406 261.042969 216.820312 260.726562 215.949219 260.644531 Z M 259.457031 302.09375 L 259.457031 323.964844 L 246.777344 323.964844 L 252.085938 297.496094 Z M 241.941406 347.976562 L 244.242188 336.644531 L 259.457031 336.644531 L 259.457031 362.003906 L 251.292969 362.003906 Z M 272.136719 362.003906 L 272.136719 349.246094 C 272.53125 349.324219 293.691406 349.324219 293.691406 349.324219 L 300.585938 362.003906 Z M 303.4375 274.75 L 292.1875 336.644531 L 273.246094 336.644531 C 272.851562 336.644531 272.453125 336.722656 272.136719 336.722656 L 272.136719 298.605469 C 272.136719 296.386719 271.027344 294.40625 269.125 293.214844 L 256.605469 285.371094 L 284.183594 252.246094 L 300.191406 265.796875 C 302.804688 268.015625 303.992188 271.421875 303.4375 274.75 Z M 304.945312 121.089844 C 303.519531 121.089844 302.09375 121.566406 300.984375 122.515625 L 288.621094 132.34375 L 273.878906 107.777344 L 284.578125 103.179688 C 286.085938 102.546875 287.75 102.308594 289.414062 102.46875 L 336.644531 107.699219 L 336.644531 121.089844 Z M 356.613281 121.089844 L 349.324219 121.089844 L 349.324219 105.953125 L 360.023438 100.566406 Z M 356.613281 121.089844 " fill-opacity="1" fill-rule="nonzero"/></svg>